<?xml version="1.0" standalone="no"?>
<!DOCTYPE svg PUBLIC "-//W3C//DTD SVG 20010904//EN"
 "http://www.w3.org/TR/2001/REC-SVG-20010904/DTD/svg10.dtd">
<svg version="1.0" xmlns="http://www.w3.org/2000/svg"
 width="500.000000pt" height="500.000000pt" viewBox="0 0 500.000000 500.000000"
 preserveAspectRatio="xMidYMid meet">

<g transform="translate(0.000000,500.000000) scale(0.100000,-0.100000)"
fill="#000000" stroke="none">
<path d="M2850 4399 c-92 -42 -134 -107 -134 -209 0 -77 26 -135 78 -175 154
-118 367 -15 366 177 -1 162 -166 273 -310 207z"/>
<path d="M2434 3913 c-488 -3 -512 -4 -528 -22 -14 -15 -15 -24 -7 -39 13 -24
-16 -18 421 -92 195 -34 363 -63 373 -66 10 -3 33 -19 52 -35 27 -24 45 -61
100 -212 37 -100 71 -186 75 -190 9 -11 582 11 593 22 5 5 -56 148 -136 322
l-144 314 -144 0 c-79 0 -374 -1 -655 -2z"/>
<path d="M1943 3722 c-6 -4 22 -7 63 -7 40 -1 68 3 61 7 -15 10 -108 10 -124
0z"/>
<path d="M1846 3659 c-15 -11 -34 -35 -43 -52 -14 -29 -14 -31 0 -19 14 12 22
7 62 -34 46 -46 47 -47 66 -27 25 25 17 46 -27 69 -19 10 -34 22 -34 27 0 4
-6 5 -12 1 -7 -4 -3 4 10 18 30 33 13 45 -22 17z"/>
<path d="M2215 3549 c4 -44 3 -69 -4 -74 -6 -3 -18 -21 -25 -38 -8 -18 -21
-41 -30 -52 -16 -20 -16 -20 -34 0 -9 11 -25 19 -34 17 -11 -2 -23 8 -34 30
-9 18 -27 48 -41 65 l-24 33 -30 -22 c-16 -12 -28 -26 -26 -31 1 -5 5 -7 7 -6
11 6 50 -23 50 -36 0 -8 4 -15 8 -15 4 0 27 -17 51 -39 47 -43 42 -51 -29 -51
-30 0 -47 -7 -70 -30 -67 -65 -148 -74 -200 -22 -16 17 -30 36 -30 43 0 6 -7
17 -17 24 -9 7 -13 17 -9 23 4 7 25 -7 56 -38 36 -36 54 -47 69 -43 12 3 21 1
21 -6 0 -6 5 -11 11 -11 22 0 -2 55 -42 94 -40 39 -50 70 -25 79 10 4 16 -5
20 -29 4 -19 13 -34 19 -34 24 0 67 -25 67 -38 0 -7 5 -10 10 -7 6 3 10 20 10
37 0 22 -4 29 -14 25 -18 -7 -76 45 -76 68 0 14 -9 16 -52 13 -46 -3 -55 -7
-75 -37 -50 -75 -43 -149 23 -215 l44 -46 -162 -2 c-160 -3 -163 -3 -166 -25
-3 -17 5 -25 31 -36 l34 -15 25 -158 c14 -88 59 -378 99 -646 l73 -488 338 0
338 0 4 23 c3 12 37 270 76 572 99 767 86 693 127 710 27 11 34 19 31 37 l-3
23 -330 5 -330 5 37 19 c20 11 35 23 32 28 -7 11 0 10 28 -3 29 -13 115 21
124 48 6 20 6 20 52 88 28 43 32 57 32 114 -1 47 -7 76 -21 101 l-20 35 6 -66z
m-490 -119 c-3 -5 -11 -10 -16 -10 -6 0 -7 5 -4 10 3 6 11 10 16 10 6 0 7 -4
4 -10z m359 -165 c-4 -8 -15 -15 -26 -15 -17 0 -18 3 -8 15 7 8 19 15 26 15 8
0 11 -6 8 -15z m-350 -187 c3 -18 8 -54 11 -80 l6 -48 -79 0 -80 0 -5 33 c-3
17 -9 53 -13 80 l-6 47 80 0 81 0 5 -32z m256 -48 l0 -80 -84 0 -85 0 -5 43
c-3 23 -7 59 -9 80 l-3 37 93 0 93 0 0 -80z m236 58 c-3 -13 -6 -49 -6 -81 l0
-58 -77 3 -78 3 -3 64 c-2 35 -1 70 2 77 4 10 28 14 87 14 79 0 81 -1 75 -22z
m240 -49 c-3 -39 -9 -75 -12 -80 -3 -5 -42 -9 -86 -9 l-81 0 7 46 c3 26 6 62
6 80 l0 34 86 0 87 0 -7 -71z m-715 -186 c5 -15 9 -43 7 -62 l-3 -36 -62 -3
c-51 -2 -63 0 -71 15 -12 23 -24 91 -18 101 2 4 34 9 70 10 64 3 67 2 77 -25z
m193 21 l46 -7 0 -53 c0 -29 -4 -55 -8 -58 -5 -3 -41 -2 -79 1 l-71 6 -4 54
c-1 30 -1 57 1 59 6 6 62 5 115 -2z m264 -19 c2 -10 1 -37 -3 -62 l-6 -44 -67
3 -67 3 -3 49 c-2 27 -1 54 1 60 3 7 30 10 73 10 57 -2 70 -5 72 -19z m227
-32 c-4 -32 -11 -62 -15 -66 -4 -4 -36 -7 -71 -5 l-64 3 -3 49 c-5 74 -3 76
83 76 l76 0 -6 -57z m-661 -189 c11 -86 13 -84 -54 -84 -68 0 -74 6 -85 83
l-7 47 70 0 69 0 7 -46z m214 -16 l-3 -63 -63 -3 c-70 -3 -68 -5 -75 76 l-4
52 74 0 74 0 -3 -62z m207 10 c-10 -81 -8 -79 -72 -76 l-58 3 -3 63 -3 62 71
0 71 0 -6 -52z m218 10 c-10 -92 -6 -88 -78 -88 -35 0 -65 3 -68 8 -2 4 -1 33
1 65 l4 57 73 0 73 0 -5 -42z m-623 -192 c0 -18 3 -48 6 -65 l7 -31 -61 0 -60
0 -6 48 c-4 26 -9 55 -12 65 -5 15 3 17 60 17 l66 0 0 -34z m200 -31 l0 -65
-60 0 -60 0 0 34 c0 18 -3 48 -6 65 l-6 31 66 0 66 0 0 -65z m188 3 l-3 -63
-55 0 -55 0 -3 49 c-5 71 -1 76 63 76 l56 0 -3 -62z m212 43 c0 -10 -3 -39 -6
-65 l-7 -46 -63 0 -64 0 0 49 c0 78 3 81 76 81 56 0 64 -2 64 -19z m-584 -196
c4 -9 7 -39 8 -68 l1 -52 -50 0 -50 0 -11 62 c-6 35 -9 65 -6 68 3 3 27 5 54
5 34 0 50 -4 54 -15z m179 -55 l0 -65 -39 -3 c-48 -4 -54 2 -62 60 -10 70 -3
80 53 76 l48 -3 0 -65z m181 56 c3 -8 2 -39 -3 -68 l-8 -53 -45 0 -45 0 -3 54
c-2 29 -1 60 2 67 8 20 95 19 102 0z m190 -48 c-4 -35 -11 -67 -15 -71 -5 -5
-30 -7 -57 -5 l-49 3 3 55 c4 80 4 80 68 80 l57 0 -7 -62z m-532 -160 c3 -7 7
-50 10 -95 l6 -83 -43 0 -44 0 -11 78 c-18 116 -19 112 33 112 28 0 47 -5 49
-12z m166 -83 l0 -95 -35 0 c-42 0 -42 0 -50 108 l-6 82 45 0 46 0 0 -95z
m160 46 c0 -26 -3 -69 -6 -95 -7 -46 -7 -46 -45 -46 l-39 0 0 95 0 95 45 0 45
0 0 -49z m180 15 c0 -18 -3 -61 -6 -95 l-7 -61 -48 0 -49 0 0 79 c0 107 2 111
61 111 49 0 49 0 49 -34z"/>
<path d="M1752 3524 c-16 -25 -19 -34 -8 -34 18 0 46 43 37 58 -4 6 -15 -3
-29 -24z"/>
<path d="M980 1111 l0 -351 70 0 70 0 0 64 c0 34 3 91 6 125 l7 61 67 0 c177
0 270 79 270 230 0 69 -22 131 -56 162 -47 42 -94 51 -266 56 l-168 4 0 -351z
m310 209 c24 -13 43 -72 35 -110 -12 -55 -39 -70 -127 -70 l-78 0 0 95 0 95
76 0 c41 0 84 -4 94 -10z"/>
<path d="M2900 1110 l0 -351 71 3 70 3 0 340 c0 187 -1 343 -1 348 0 4 -31 7
-70 7 l-70 0 0 -350z"/>
<path d="M2237 1414 c-4 -4 -7 -31 -7 -61 0 -65 -22 -93 -75 -93 l-35 0 0 -55
0 -55 44 0 43 0 5 -144 c5 -112 10 -151 23 -174 27 -45 69 -65 152 -70 l73 -5
0 57 0 56 -34 0 c-60 0 -67 16 -64 154 l3 121 48 3 47 3 0 55 0 54 -50 0 -49
0 -3 78 -3 77 -55 3 c-31 2 -59 0 -63 -4z"/>
<path d="M3426 1256 c-21 -8 -43 -19 -49 -25 -16 -16 -24 -13 -30 9 -4 17 -14
20 -71 20 l-66 0 0 -240 c0 -132 -1 -243 -2 -247 -2 -5 27 -9 65 -11 l67 -3 0
133 c0 163 6 201 36 233 19 20 33 25 73 25 42 0 53 -4 70 -26 19 -25 21 -40
21 -195 l0 -169 71 0 70 0 -3 204 c-3 190 -5 207 -24 233 -12 15 -34 36 -50
45 -42 25 -130 31 -178 14z"/>
<path d="M1572 1051 c3 -208 3 -210 28 -236 53 -57 130 -75 213 -51 30 9 60
23 67 31 15 18 30 11 30 -16 0 -17 7 -19 65 -19 l65 0 0 250 0 251 -67 -3 -68
-3 -5 -168 -5 -169 -28 -24 c-33 -28 -101 -33 -133 -10 -17 13 -19 31 -24 193
l-5 178 -68 3 -68 3 3 -210z"/>
<path d="M2609 900 c-9 -5 -22 -23 -29 -39 -25 -61 40 -126 101 -101 35 15 49
37 49 78 0 54 -71 91 -121 62z"/>
<path d="M3864 863 c-4 -21 -17 -90 -29 -153 -12 -63 -21 -117 -19 -121 1 -3
24 -3 50 0 l47 6 49 145 c26 79 48 148 48 152 0 5 -31 8 -70 8 l-69 0 -7 -37z"/>
</g>
</svg>
